PathFileType	4	(x/y/z)	A01_PREF_T0017.trc
DataRate	CameraRate	NumFrames	NumMarkers	Units	OrigDataRate	OrigDataStartFrame	OrigNumFrames
240	240	9	48	mm	240	194	309
Frame#	Time	TOP_HEAD			R_AC			L_AC			R_ASIS			L_ASIS			R_PSIS			L_PSIS			SACRAL			L_IC			R_IC			L_GT			R_GT			R_LAT_KNEE			R_MED_KNEE			L_MED_KNEE			L_LAT_KNEE			R_TOE			L_TOE			R_1ST_MET			L_1ST_MET			L_5TH_MET			R_5TH_MET			R_LAT_ANK			R_MED_ANK			L_MED_ANK			L_LAT_ANK			L_HEEL_SUP			R_HEEL_SUP			L_HEEL_LAT			R_HEEL_LAT			L_HEEL_MED			R_HEEL_MED			R_LL_PROX_POST			R_LL_PROX_ANT			R_LL_DIST_ANT			R_LL_DIST_POST			R_THIGH_PROX_POST			R_THIGH_PROX_ANT			R_THIGH_DIST_ANT			R_THIGH_DIST_POST			L_PROS_PROX_ANT			L_PROS_PROX_POST			L_PROS_DIST_POST			L_PROS_DIST_ANT			L_THIGH_PROX_ANT			L_THIGH_PROX_POST			L_THIGH_DIST_POST			L_THIGH_DIST_ANT			
		X1	Y1	Z1	X2	Y2	Z2	X3	Y3	Z3	X4	Y4	Z4	X5	Y5	Z5	X6	Y6	Z6	X7	Y7	Z7	X8	Y8	Z8	X9	Y9	Z9	X10	Y10	Z10	X11	Y11	Z11	X12	Y12	Z12	X13	Y13	Z13	X14	Y14	Z14	X15	Y15	Z15	X16	Y16	Z16	X17	Y17	Z17	X18	Y18	Z18	X19	Y19	Z19	X20	Y20	Z20	X21	Y21	Z21	X22	Y22	Z22	X23	Y23	Z23	X24	Y24	Z24	X25	Y25	Z25	X26	Y26	Z26	X27	Y27	Z27	X28	Y28	Z28	X29	Y29	Z29	X30	Y30	Z30	X31	Y31	Z31	X32	Y32	Z32	X33	Y33	Z33	X34	Y34	Z34	X35	Y35	Z35	X36	Y36	Z36	X37	Y37	Z37	X38	Y38	Z38	X39	Y39	Z39	X40	Y40	Z40	X41	Y41	Z41	X42	Y42	Z42	X43	Y43	Z43	X44	Y44	Z44	X45	Y45	Z45	X46	Y46	Z46	X47	Y47	Z47	X48	Y48	Z48	

194	0.80678	523.43	1717.5	351.26	278.39	1513.5	569.19	284.87	1536	109.58	277.66	1070.7	529.38	273.25	997.31	179.16	58.707	1063.7	407.9	66.981	1066.9	274.99	47.128	1035.5	340.18	255.12	1128.6	140.8	238.09	1154.8	544.78	204.57	921.45	138.47	230.69	956.75	570.12	358.25	565.98	492.35	383.83	576.75	361.98	222.05	498.13	333.12	192.5	532.7	182.18	594.66	78.31	377.88	-93.68	77.189	239.58	510.15	58.045	333.93	-155.11	120.58	306.02	-193.61	153.01	186.94	488.11	46.169	469.41	365.83	103.21	448.45	370.3	112.73	346	-160.04	273.86	304.22	-194.55	297.32	244.09	-276.18	332.08	301.83	266.37	66.594	393.11	-299.57	313.51	270.56	276.37	43.634	427.54	-287.33	298.03	331.83	277.89	40.365	367.42	285.37	382.41	493.7	356.8	378.47	508.52	364.99	305.59	488.77	309.47	303.41	480.11	237.71	807.59	546.24	297.65	847.52	554.64	329.79	762.99	541.43	272.62	726	530.5	156.17	445.69	192.25	121.53	489.38	189.04	69.134	455.64	202.14	107.9	417.4	202.79	259.02	775.85	171.65	189.96	785.12	154.55	197.6	709.35	162.3	260.48	701.91	177.47
195	0.81096	528.94	1718.2	351.48	284.36	1514.3	569.48	289.92	1536.6	109.85	283.24	1070.7	530.31	279.06	998.5	179.78	64.3	1064	408.63	72.463	1067.3	275.76	52.791	1035.8	340.86	260.42	1129.3	141.22	243.86	1155.4	545.53	210.71	922.49	138.86	235.96	956.67	570.67	362.25	565.84	492.73	388.03	576.62	362.34	232.92	497.97	332.17	202.19	534.4	181.85	595.07	77.383	377.86	-85.777	79.583	236.27	510.42	57.769	333.84	-146.28	122.64	303.84	-185.8	156.73	185.52	488.24	45.994	469.53	366.33	103.32	448.27	370.78	112.72	345.82	-150.57	275.94	303.93	-185.46	300.21	244.35	-266.15	334.98	303.3	266.64	66.986	393.1	-289.98	316.9	272.06	276.54	43.991	427.53	-277.25	300.69	333.03	278.1	40.739	367.42	288	382.88	493.75	359.42	378.43	508.64	367.11	305.5	488.75	311.6	303.73	479.99	242.37	807.74	546.53	302.52	847.4	555.24	334.34	762.74	542.08	277.03	726.02	530.89	165.53	447.44	191.28	131.07	491.35	188.84	78.647	457.71	202	117.21	419.28	201.87	266.52	777.14	171.6	197.36	785.88	154.61	205.65	710.16	162.16	268.61	703.19	177.22
196	0.81514	534.45	1718.9	351.67	290.29	1515.2	569.77	294.91	1537.2	110.1	288.85	1070.8	531.19	284.82	999.72	180.36	69.883	1064.4	409.38	77.922	1067.8	276.54	58.431	1036.1	341.55	265.66	1130	141.63	249.68	1156	546.27	216.79	923.55	139.22	241.24	956.64	571.2	366.18	565.72	493.09	392.14	576.49	362.7	243.74	497.92	331.21	211.86	536.16	181.51	595.47	76.524	377.84	-77.548	81.943	232.93	510.68	57.542	333.75	-137.17	124.55	301.61	-177.71	160.24	184.06	488.37	45.856	469.63	366.81	103.43	448.11	371.24	112.73	345.65	-140.94	277.85	303.57	-176.21	302.88	244.55	-256.05	337.54	304.68	266.91	67.38	393.09	-280.29	319.91	273.46	276.71	44.349	427.52	-267.06	303	334.14	278.28	41.118	367.41	290.56	383.36	493.79	361.95	378.39	508.74	369.15	305.43	488.72	313.66	304.05	479.86	247.01	807.94	546.83	307.38	847.33	555.81	338.86	762.53	542.69	281.41	726.08	531.27	174.93	449.24	190.29	140.62	493.34	188.62	88.197	459.76	201.84	126.58	421.17	200.94	273.98	778.48	171.53	204.74	786.69	154.67	213.67	711.03	162	276.7	704.53	176.96
197	0.81932	539.93	1719.7	351.82	296.19	1516.1	570.06	299.85	1537.8	110.32	294.47	1070.9	532.02	290.52	1001	180.9	75.453	1064.8	410.13	83.36	1068.2	277.32	64.044	1036.5	342.26	270.85	1130.7	142.03	255.55	1156.6	547.01	222.81	924.65	139.57	246.52	956.68	571.69	370.03	565.61	493.44	396.18	576.34	363.07	254.5	497.97	330.24	221.52	537.98	181.17	595.85	75.727	377.82	-69.001	84.24	229.58	510.92	57.356	333.67	-127.8	126.31	299.34	-169.35	163.54	182.56	488.48	45.748	469.72	367.27	103.55	447.95	371.67	112.76	345.49	-131.17	279.56	303.15	-166.81	305.34	244.67	-245.9	339.76	305.96	267.17	67.778	393.09	-270.51	322.57	274.77	276.88	44.71	427.5	-256.8	304.97	335.14	278.46	41.502	367.41	293.05	383.85	493.8	364.4	378.38	508.85	371.13	305.39	488.7	315.66	304.39	479.73	251.64	808.19	547.12	312.23	847.32	556.34	343.36	762.38	543.26	285.76	726.19	531.65	184.38	451.08	189.31	150.19	495.34	188.39	97.784	461.79	201.65	136.01	423.07	200.01	281.41	779.89	171.46	212.09	787.56	154.7	221.66	711.95	161.85	284.78	705.93	176.69
198	0.8235	545.4	1720.5	351.94	302.05	1517	570.35	304.75	1538.5	110.51	300.1	1071	532.79	296.16	1002.2	181.4	81.012	1065.3	410.88	88.777	1068.7	278.1	69.632	1037	342.97	275.98	1131.4	142.44	261.45	1157.3	547.72	228.77	925.77	139.9	251.81	956.79	572.15	373.8	565.52	493.78	400.17	576.2	363.45	265.2	498.14	329.27	231.16	539.86	180.81	596.21	74.987	377.79	-60.143	86.449	226.26	511.15	57.206	333.59	-118.18	127.9	297.05	-160.71	166.6	181.03	488.57	45.665	469.8	367.72	103.69	447.81	372.09	112.82	345.34	-121.26	281.09	302.67	-157.25	307.57	244.72	-235.68	341.65	307.12	267.42	68.181	393.08	-260.62	324.87	275.94	277.03	45.075	427.49	-246.45	306.61	336.02	278.62	41.894	367.4	295.47	384.34	493.8	366.78	378.39	508.95	373.05	305.36	488.69	317.59	304.75	479.6	256.25	808.49	547.42	317.05	847.35	556.84	347.84	762.28	543.81	290.09	726.35	532.03	193.87	452.95	188.33	159.78	497.34	188.15	107.41	463.79	201.42	145.5	424.96	199.07	288.82	781.34	171.37	219.42	788.46	154.72	229.62	712.91	161.69	292.83	707.39	176.42
199	0.82768	550.86	1721.3	352.03	307.87	1517.9	570.64	309.61	1539.1	110.69	305.75	1071.2	533.5	301.76	1003.5	181.87	86.559	1065.9	411.62	94.175	1069.3	278.87	75.192	1037.5	343.67	281.07	1132.1	142.84	267.38	1158	548.41	234.67	926.92	140.21	257.11	956.98	572.58	377.47	565.44	494.1	404.1	576.04	363.84	275.84	498.43	328.31	240.79	541.77	180.44	596.56	74.301	377.76	-50.979	88.547	222.99	511.36	57.086	333.52	-108.32	129.32	294.76	-151.79	169.41	179.49	488.66	45.602	469.86	368.17	103.84	447.69	372.49	112.9	345.2	-111.22	282.43	302.12	-147.56	309.56	244.69	-225.4	343.23	308.16	267.67	68.591	393.08	-250.64	326.82	276.98	277.19	45.445	427.48	-236.03	307.94	336.77	278.77	42.295	367.38	297.83	384.84	493.8	369.1	378.41	509.05	374.91	305.36	488.68	319.46	305.12	479.48	260.85	808.84	547.71	321.85	847.44	557.32	352.28	762.22	544.32	294.38	726.56	532.4	203.4	454.84	187.35	169.38	499.33	187.88	117.07	465.74	201.17	155.06	426.84	198.14	296.2	782.84	171.28	226.73	789.41	154.72	237.57	713.92	161.52	300.87	708.9	176.13
200	0.83186	556.3	1722.1	352.09	313.66	1518.9	570.92	314.44	1539.8	110.85	311.41	1071.5	534.15	307.29	1004.8	182.29	92.091	1066.5	412.36	99.555	1069.9	279.63	80.724	1038	344.38	286.11	1132.8	143.23	273.33	1158.8	549.06	240.51	928.08	140.51	262.41	957.25	572.97	381.05	565.38	494.42	407.98	575.89	364.25	286.4	498.85	327.36	250.41	543.7	180.07	596.9	73.665	377.73	-41.516	90.516	219.79	511.57	56.992	333.46	-98.226	130.57	292.49	-142.59	171.96	177.93	488.73	45.554	469.92	368.6	103.99	447.58	372.88	113	345.08	-101.05	283.59	301.52	-137.73	311.33	244.57	-215.06	344.5	309.04	267.92	69.008	393.08	-240.57	328.43	277.87	277.34	45.822	427.46	-225.54	308.97	337.36	278.9	42.708	367.35	300.13	385.35	493.8	371.35	378.46	509.16	376.71	305.37	488.69	321.28	305.51	479.37	265.43	809.25	548.01	326.62	847.58	557.76	356.69	762.22	544.81	298.63	726.82	532.77	212.99	456.74	186.39	179	501.29	187.6	126.76	467.64	200.88	164.68	428.7	197.21	303.55	784.39	171.18	234.03	790.39	154.7	245.5	714.96	161.36	308.9	710.46	175.84
201	0.83604	561.72	1723	352.12	319.41	1519.9	571.2	319.25	1540.4	110.99	317.07	1071.8	534.72	312.78	1006.1	182.68	97.61	1067.3	413.07	104.92	1070.5	280.38	86.227	1038.7	345.07	291.11	1133.5	143.63	279.29	1159.6	549.66	246.3	929.25	140.8	267.72	957.61	573.34	384.52	565.34	494.73	411.8	575.73	364.67	296.89	499.39	326.43	260.03	545.66	179.68	597.22	73.076	377.7	-31.756	92.339	216.69	511.76	56.919	333.4	-87.915	131.65	290.24	-133.13	174.24	176.37	488.8	45.518	469.96	369.02	104.16	447.49	373.25	113.12	344.97	-90.773	284.57	300.85	-127.76	312.85	244.36	-204.66	345.48	309.77	268.16	69.434	393.09	-230.39	329.71	278.6	277.49	46.206	427.45	-214.99	309.71	337.81	279.02	43.134	367.32	302.38	385.86	493.81	373.54	378.52	509.27	378.47	305.41	488.71	323.04	305.92	479.29	269.98	809.7	548.3	331.36	847.77	558.18	361.06	762.26	545.27	302.84	727.13	533.12	222.62	458.65	185.44	188.65	503.23	187.29	136.49	469.48	200.56	174.38	430.53	196.29	310.89	785.98	171.07	241.31	791.4	154.66	253.41	716.04	161.18	316.92	712.08	175.54
202	0.84022	567.12	1723.9	352.12	325.11	1520.9	571.49	324.03	1541.1	111.12	322.74	1072.2	535.23	318.21	1007.4	183.03	103.11	1068	413.78	110.26	1071.2	281.11	91.702	1039.3	345.76	296.07	1134.2	144.02	285.26	1160.5	550.22	252.03	930.44	141.06	273.02	958.05	573.67	387.89	565.32	495.03	415.57	575.57	365.09	307.29	500.07	325.52	269.63	547.64	179.29	597.52	72.532	377.67	-21.701	94.004	213.71	511.95	56.863	333.36	-77.389	132.55	288.04	-123.39	176.23	174.8	488.86	45.491	470	369.44	104.33	447.42	373.61	113.27	344.88	-80.381	285.37	300.13	-117.66	314.13	244.06	-194.21	346.18	310.33	268.4	69.869	393.1	-220.13	330.66	279.15	277.63	46.598	427.44	-204.38	310.17	338.08	279.13	43.573	367.29	304.58	386.39	493.83	375.67	378.6	509.39	380.17	305.48	488.74	324.74	306.34	479.23	274.52	810.21	548.59	336.07	848	558.57	365.39	762.35	545.7	307	727.48	533.47	232.31	460.55	184.52	198.31	505.12	186.96	146.24	471.25	200.2	184.13	432.32	195.39	318.2	787.62	170.95	248.58	792.45	154.61	261.32	717.16	161	324.93	713.73	175.25
